<svg xmlns="http://www.w3.org/2000/svg" width="24" height="24">
    <path style="stroke:none;fill-rule:nonzero;fill:#fff;fill-opacity:1" d="M10.59 13.41a.97.97 0 0 1 0 1.418c-.39.39-1.031.39-1.418 0a4.993 4.993 0 0 1 0-7.066l3.539-3.543a5.005 5.005 0 0 1 7.07 0 5.005 5.005 0 0 1 0 7.07l-1.492 1.492a6.853 6.853 0 0 0-.398-2.422l.468-.48a2.98 2.98 0 0 0 0-4.238 2.98 2.98 0 0 0-4.238 0L10.59 9.17a2.98 2.98 0 0 0 0 4.24m2.82-4.24c.39-.39 1.031-.39 1.418 0a4.993 4.993 0 0 1 0 7.067l-3.539 3.543a5.005 5.005 0 0 1-7.07 0 5.005 5.005 0 0 1 0-7.07l1.492-1.492c-.012.82.117 1.64.398 2.43l-.468.472a2.98 2.98 0 0 0 0 4.238 2.98 2.98 0 0 0 4.238 0l3.531-3.53a2.98 2.98 0 0 0 0-4.24.97.97 0 0 1 0-1.417Zm0 0"/>
</svg>
