<svg xmlns="http://www.w3.org/2000/svg" width="24" height="24">
    <path style="stroke:none;fill-rule:evenodd;fill:#0079FE;fill-opacity:1" d="M10.102 2.047c-3.051.285-5.813 2.215-7.184 5.012a8.99 8.99 0 0 0 1.723 10.3c1.347 1.348 3.011 2.196 4.96 2.532.672.113 2.032.12 2.72.015a10.603 10.603 0 0 0 1.699-.426c.75-.261 1.875-.875 2.414-1.308l.171-.145 1.93 1.922c1.73 1.73 1.945 1.926 2.121 1.985.39.128.766.046 1.043-.235.281-.277.363-.652.235-1.043-.059-.176-.254-.39-1.985-2.12l-1.922-1.93.145-.172c.445-.551 1.043-1.66 1.32-2.454.168-.488.317-1.09.414-1.68.102-.613.102-1.988 0-2.6-.164-1.009-.398-1.759-.828-2.641-1.637-3.38-5.2-5.372-8.976-5.012m1.636 1.996c2.45.277 4.512 1.734 5.563 3.93a6.97 6.97 0 0 1-1.801 8.379 6.972 6.972 0 0 1-8.379.464C3.95 14.707 3.055 10.422 5.11 7.22c1.422-2.211 4.051-3.473 6.63-3.176"/>
</svg>