<svg xmlns="http://www.w3.org/2000/svg" width="24" height="24">
    <path style="stroke:none;fill-rule:nonzero;fill:#fff;fill-opacity:1" d="M21 6.418A7.416 7.416 0 0 1 18.879 7a3.713 3.713 0 0 0 1.625-2.043 7.504 7.504 0 0 1-2.344.898 3.698 3.698 0 0 0-2.695-1.171 3.698 3.698 0 0 0-3.598 4.535 10.474 10.474 0 0 1-7.613-3.856c-.32.543-.5 1.18-.5 1.856 0 1.281.648 2.41 1.644 3.074a3.634 3.634 0 0 1-1.675-.465v.047a3.69 3.69 0 0 0 2.965 3.621 3.654 3.654 0 0 1-1.668.066 3.695 3.695 0 0 0 3.449 2.567 7.43 7.43 0 0 1-4.586 1.578c-.301 0-.594-.016-.883-.05a10.464 10.464 0 0 0 5.66 1.66c6.793 0 10.508-5.63 10.508-10.508 0-.16-.004-.32-.012-.48A7.519 7.519 0 0 0 21 6.417Zm0 0"/>
</svg>
